<?xml version="1.0" encoding="utf-8"?>
<!-- Generator: Adobe Illustrator 25.2.3, SVG Export Plug-In . SVG Version: 6.00 Build 0)  -->
<svg version="1.1" id="Camada_1" xmlns="http://www.w3.org/2000/svg" xmlns:xlink="http://www.w3.org/1999/xlink" x="0px" y="0px"
	 viewBox="0 0 1150 883" style="enable-background:new 0 0 1150 883;" xml:space="preserve">
<style type="text/css">
	.st0{fill:#CAD1D8;}
	.st1{fill:#75909B;stroke:#939CA0;stroke-miterlimit:10;}
	.st2{fill:#EFF3F6;stroke:#939CA0;stroke-miterlimit:10;}
	.st3{fill:none;stroke:#C2CAD0;stroke-width:2;stroke-linecap:round;stroke-miterlimit:10;}
	.st4{fill:none;stroke:#75909B;stroke-width:6;stroke-linecap:round;stroke-linejoin:round;stroke-miterlimit:10;}
</style>
<g id="Background">
</g>
<g id="Layer_5">
</g>
<path class="st0" d="M453.1,688.8v-5.7h-26.6v5.7H453.1z M400,688.8v-5.7h-26.6v5.7H400z M346.8,688.8v-5.7h-26.6v5.7H346.8z
	 M293.6,688.8v-5.7h-26.6v5.7H293.6z M240.5,688.8v-5.7h-23.7v-14.3h-5.7v20H240.5z M216.8,642.1v-26.7h-5.7v26.7H216.8z
	 M216.8,588.6v-26.7h-5.7v26.7H216.8z M216.8,535.2v-26.7h-5.7v26.7H216.8z M216.8,481.8v-26.7h-5.7v26.7H216.8z M216.8,428.3v-26.7
	h-5.7v26.7H216.8z M216.8,374.9v-26.7h-5.7v26.7H216.8z M216.8,321.5v-26.7h-5.7v26.7H216.8z M216.8,268v-26.7h-5.7V268H216.8z
	 M311.7,235.6v-5.7h-26.6v5.7H311.7z M258.5,235.6v-5.7h-26.6v5.7H258.5z"/>
<path class="st1" d="M886.2,313.2V713H394.5V226.3h146.2l99.8,86.8H886.2z"/>
<g>
	<path class="st0" d="M923.7,543.6h-35.6v-5.3h35.6V543.6z M865.8,543.6h-35.6v-5.3h35.6V543.6z M808,543.6h-35.6v-5.3H808V543.6z
		 M750.1,543.6h-35.6v-5.3h35.6V543.6z M692.3,543.6h-35.6v-5.3h35.6V543.6z M634.4,543.6h-20.7v-20.2h5.3v14.9h15.4V543.6z
		 M938.9,531.3h-5.3v-35.6h5.3V531.3z M619.1,501.1h-5.3v-35.6h5.3V501.1z M938.9,473.5h-5.3v-35.6h5.3V473.5z M619.1,443.3h-5.3
		v-35.6h5.3V443.3z M938.9,415.6h-5.3V380h5.3V415.6z M619.1,385.4h-5.3v-35.6h5.3V385.4z M938.9,357.8h-5.3v-35.6h5.3V357.8z
		 M619.1,327.6h-5.3V292h5.3V327.6z M938.9,299.9h-5.3v-35.6h5.3V299.9z M619.1,269.7h-5.3v-35.6h5.3V269.7z M938.9,242.1h-5.3
		v-32.4h-32.9v-5.3h38.3V242.1z M619.1,211.9h-5.3v-7.6H647v5.3h-28V211.9z M878.4,209.6h-35.6v-5.3h35.6V209.6z M820.6,209.6H785
		v-5.3h35.6V209.6z M762.7,209.6h-35.6v-5.3h35.6V209.6z M704.9,209.6h-35.6v-5.3h35.6V209.6z"/>
</g>
<path class="st2" d="M884.3,713.9H391.7l-80-316.8c-5.5-19.7,9.1-39.1,29.4-39.1h419.6c13.7,0,25.7,9.2,29.4,22.3L884.3,713.9z"/>
<path class="st3" d="M751.5,403.8H578.7"/>
<path class="st3" d="M751.5,443.9h-89.2"/>
<path class="st3" d="M751.5,481.1h-32.3"/>
<path class="st3" d="M541.7,402.9h-32.3"/>
<g>
	<path class="st4" d="M378.3,445.3l33-39.4"/>
	<path class="st4" d="M411.4,445.3l-33-39.4"/>
</g>
</svg>
